<svg width="512px" height="512px" enable-background="new 0 0 401.998 401.998" version="1.1" viewBox="0 0 401.998 401.998" xml:space="preserve" xmlns="http://www.w3.org/2000/svg"><g fill="#7a7a7a"><path d="m73.092 164.45h255.81c4.949 0 9.233-1.807 12.848-5.424 3.613-3.616 5.427-7.898 5.427-12.847s-1.813-9.229-5.427-12.85l-127.91-127.91c-3.614-3.612-7.895-5.424-12.847-5.424s-9.233 1.812-12.85 5.424l-127.91 127.91c-3.617 3.617-5.424 7.901-5.424 12.85 0 4.948 1.807 9.231 5.424 12.847 3.621 3.617 7.902 5.424 12.85 5.424z"/><path d="m328.9 237.55h-255.81c-4.952 0-9.233 1.808-12.85 5.421-3.617 3.617-5.424 7.898-5.424 12.847s1.807 9.233 5.424 12.848l127.91 127.9c3.621 3.617 7.902 5.428 12.85 5.428s9.233-1.811 12.847-5.428l127.91-127.91c3.613-3.614 5.427-7.898 5.427-12.848 0-4.948-1.813-9.229-5.427-12.847-3.614-3.616-7.899-5.42-12.848-5.42z" fill="#f00"/></g></svg>
