<svg width="512px" height="512px" enable-background="new 0 0 247.46 247.46" version="1.1" viewBox="0 0 247.46 247.46" xml:space="preserve" xmlns="http://www.w3.org/2000/svg"><path d="m246.74 13.984c-1.238-2.626-3.881-4.301-6.784-4.301h-232.46c-2.903 0-5.545 1.675-6.784 4.301-1.238 2.626-0.85 5.73 0.997 7.97l89.361 108.38v99.94c0 2.595 1.341 5.005 3.545 6.373 1.208 0.749 2.579 1.127 3.955 1.127 1.137 0 2.278-0.259 3.33-0.78l50.208-24.885c2.551-1.264 4.165-3.863 4.169-6.71l0.098-75.062 89.366-108.39c1.848-2.239 2.237-5.344 0.999-7.969zm-103.65 108.89c-1.105 1.34-1.711 3.023-1.713 4.761l-0.096 73.103-35.213 17.453v-90.546c0-1.741-0.605-3.428-1.713-4.771l-80.958-98.191h200.65l-80.958 98.191z" fill="#7a7a7a"/></svg>
