<svg width="512px" height="512px" enable-background="new 0 0 550.801 550.8" version="1.1" viewBox="0 0 550.801 550.8" xml:space="preserve" xmlns="http://www.w3.org/2000/svg"><path d="m515.83 61.201h-480.86c-19.313 0-34.972 15.658-34.972 34.971v358.46c0 19.312 15.659 34.97 34.972 34.97h480.86c19.314 0 34.973-15.658 34.973-34.971v-358.46c0-19.313-15.658-34.971-34.973-34.971zm0 34.971v254.34l-68.92-62.66c-10.359-9.416-26.289-9.04-36.186 0.866l-69.752 69.741-137.53-164.28c-10.396-12.415-29.438-12.537-39.99-0.271l-128.48 149.31v-247.05h480.86zm-148.63 91.8c0-26.561 21.523-48.086 48.084-48.086 26.562 0 48.086 21.525 48.086 48.086s-21.523 48.085-48.086 48.085c-26.56 1e-3 -48.084-21.524-48.084-48.085z" fill="#3b5998"/></svg>
