<svg width="512px" height="512px" enable-background="new 0 0 44 44" version="1.1" viewBox="0 0 44 44" xmlns="http://www.w3.org/2000/svg">
 <path d="m44 22c0 12.2-9.8 22-22 22s-22-9.8-22-22 9.8-22 22-22 22 9.8 22 22zm-27-12c-0.5 0-1 0.4-1 1v13.6c0 0.4-0.5 0.7-0.9 0.4l-2-2c-0.2-0.2-0.5-0.3-0.7-0.3-0.3 0-0.5 0.1-0.7 0.3l-1.4 1.4c-0.2 0.2-0.3 0.5-0.3 0.7 0 0.3 0.1 0.5 0.3 0.7l8 8c0.2 0.2 0.5 0.3 0.7 0.3 0.3 0 0.5-0.1 0.7-0.3s0.3-0.4 0.3-0.7v-22c0-0.6-0.5-1-1-1h-2zm7.3 0.3c-0.2 0.2-0.3 0.4-0.3 0.7v22c0 0.6 0.5 1 1 1h2c0.5 0 1-0.4 1-1v-13.6c0-0.4 0.5-0.7 0.9-0.4l2 2c0.2 0.2 0.5 0.3 0.7 0.3 0.3 0 0.5-0.1 0.7-0.3l1.4-1.4c0.2-0.2 0.3-0.5 0.3-0.7 0-0.3-0.1-0.5-0.3-0.7l-8-8c-0.2-0.2-0.5-0.3-0.7-0.3-0.3 0.1-0.5 0.2-0.7 0.4z" fill="#b6d3ec"/>
 <path transform="scale(.085938)" d="m216.31 395.4c-2.3075-1.2434-97.445-96.117-98.642-98.368-1.1762-2.2123-1.1153-7.4346 0.11509-9.8599 1.2047-2.3748 18.083-19.588 20.961-21.377 2.6058-1.6198 7.5489-1.7058 10.518-0.1831 1.1711 0.60054 7.9428 6.8409 15.048 13.867 12.408 12.27 13.014 12.775 15.328 12.775 1.3248 0 3.0504-0.44942 3.8346-0.9987 3.2606-2.2838 3.1338 1.1851 3.1338-85.702 0-90.214-0.35913-83.183 4.4261-86.65 2.6842-1.9445 5.9281-2.8907 6.5362-1.9067 0.25276 0.40898 5.3251 0.712 13.911 0.83102l13.513 0.18732 2.527 1.7526c1.4355 0.99557 3.0654 2.8647 3.7734 4.3273 1.2416 2.5649 1.2464 3.0756 1.2464 132.94v130.37l-1.2876 2.6598c-1.9549 4.0383-4.8031 5.9066-9.3505 6.1335-2.5922 0.12934-4.323-0.11913-5.5916-0.80272z" fill="#fff" stroke-opacity="0"/>
 <path transform="scale(.085938)" d="m289.81 395.36c-0.67369-0.14246-1.8399-0.39007-2.5916-0.55024-0.75172-0.16018-2.3505-1.155-3.5528-2.2106-4.3108-3.785-3.9608 8.2699-3.9608-136.4 0-79.486 0.22453-131.64 0.57063-132.55 0.8461-2.2254 4.4862-5.5056 7.8669-7.089 2.6583-1.2451 3.2711-1.3187 5.6918-0.68429 2.4704 0.64746 7.0504 5.0441 51.249 49.197 26.695 26.667 48.95 49.356 49.455 50.42 1.1785 2.4835 1.1686 5.782-0.026 8.6412-1.1392 2.7264-19.196 21.123-22.073 22.488-2.5168 1.1943-6.4094 1.1955-9.2636 3e-3 -1.3881-0.57999-7.1317-5.7984-15.191-13.802-10.74-10.666-13.317-12.923-15.05-13.183-2.5536-0.38264-5.8201 1.4537-6.6993 3.7663-0.37671 0.99083-0.60214 31.344-0.61063 82.22-0.0129 77.445-0.0589 80.749-1.1582 83.17-1.4154 3.1168-4.4201 5.4787-8.0272 6.3098-2.6045 0.60012-24.032 0.81017-26.629 0.26103z" fill="#fff" stroke-opacity="0"/>
</svg>
