<svg id="covertablebg" data-name="covertablebg" xmlns="http://www.w3.org/2000/svg" viewBox="0 0 512.65 161.47"><defs><style>.cls-1{fill:#727171;}.cls-2,.cls-5{fill:#b42023;}.cls-2{opacity:0.3;}.cls-3{fill:#b4222d;}.cls-4{fill:#fff;}</style></defs><title>业绩驱动营单店报告模版-改1013</title><path class="cls-1" d="M234.67,590.7h-186V735.43H255.32V590.7H234.67Zm-20.65.19h20.46v20.45H214V590.89ZM234.48,632H214V611.54h20.46V632Zm0,20.65H214V632.19h20.46v20.45Zm0,20.65H214V652.84h20.46v20.45Zm0,20.65H214V673.49h20.46v20.45Zm0,20.65H214V694.14h20.46v20.45Zm-165-20.45H89.94v20.45H69.48V694.14Zm0-20.65H89.94v20.45H69.48V673.49Zm0-20.65H89.94v20.45H69.48V652.84Zm0-20.65H89.94v20.45H69.48V632.19Zm0-20.65H89.94V632H69.48V611.54ZM213.83,632H193.37V611.54h20.45V632Zm0,20.65H193.37V632.19h20.45v20.45Zm0,20.65H193.37V652.84h20.45v20.45Zm0,20.65H193.37V673.49h20.45v20.45ZM90.13,673.49h20.45v20.45H90.13V673.49Zm0-20.65h20.45v20.45H90.13V652.84Zm0-20.65h20.45v20.45H90.13V632.19Zm103,20.45H172.72V632.19h20.45v20.45Zm0,20.65H172.72V652.84h20.45v20.45Zm-82.4-20.45h20.45v20.45H110.78V652.84Zm20.65,0h20.46v20.45H131.43V652.84Zm20.65,0h20.45v20.45H152.08V652.84Zm20.45-.2H152.08V632.19h20.45v20.45Zm-20.65,0H131.43V632.19h20.46v20.45Zm-20.65,0H110.78V632.19h20.45v20.45Zm-20.45,20.84h20.45v20.45H110.78V673.49Zm20.65,0h20.46v20.45H131.43V673.49Zm20.65,0h20.45v20.45H152.08V673.49Zm20.65,0h20.45v20.45H172.72V673.49ZM193.18,632H172.72V611.54h20.45V632Zm-20.65,0H152.08V611.54h20.45V632Zm-20.65,0H131.43V611.54h20.46V632Zm-20.65,0H110.78V611.54h20.45V632Zm-20.65,0H90.13V611.54h20.45V632ZM90.13,694.14h20.45v20.45H90.13V694.14Zm20.65,0h20.45v20.45H110.78V694.14Zm20.65,0h20.46v20.45H131.43V694.14Zm20.65,0h20.45v20.45H152.08V694.14Zm20.65,0h20.45v20.45H172.72V694.14Zm20.65,0h20.45v20.45H193.37V694.14Zm0-103.24h20.45v20.45H193.37V590.89Zm-20.65,0h20.45v20.45H172.72V590.89Zm-20.65,0h20.45v20.45H152.08V590.89Zm-20.65,0h20.46v20.45H131.43V590.89Zm-20.65,0h20.45v20.45H110.78V590.89Zm-20.65,0h20.45v20.45H90.13V590.89Zm-20.65,0H89.94v20.45H69.48V590.89Zm-20.65,0H69.29v20.45H48.83V590.89Zm0,20.65H69.29V632H48.83V611.54Zm0,20.65H69.29v20.45H48.83V632.19Zm0,20.65H69.29v20.45H48.83V652.84Zm0,20.65H69.29v20.45H48.83V673.49Zm0,20.65H69.29v20.45H48.83V694.14Zm20.45,41.1H48.83V714.79H69.29v20.45Zm20.65,0H69.48V714.79H89.94v20.45Zm20.65,0H90.13V714.79h20.45v20.45Zm20.65,0H110.78V714.79h20.45v20.45Zm20.65,0H131.43V714.79h20.46v20.45Zm20.65,0H152.08V714.79h20.45v20.45Zm20.65,0H172.72V714.79h20.45v20.45Zm20.65,0H193.37V714.79h20.45v20.45Zm20.65,0H214V714.79h20.46v20.45Zm20.65,0H234.67V714.79h20.45v20.45Zm0-20.65H234.67V694.14h20.45v20.45Zm0-20.65H234.67V673.49h20.45v20.45Zm0-20.65H234.67V652.84h20.45v20.45Zm0-20.65H234.67V632.19h20.45v20.45Zm0-20.65H234.67V611.54h20.45V632Zm-20.45-20.65V590.89h20.45v20.45H234.67Z" transform="translate(-42.63 -579.91)"/><path class="cls-1" d="M317.17,590.7h-186V735.43H337.82V590.7H317.17Zm-20.65.19H317v20.45H296.52V590.89ZM317,632H296.52V611.54H317V632Zm0,20.65H296.52V632.19H317v20.45Zm0,20.65H296.52V652.84H317v20.45Zm0,20.65H296.52V673.49H317v20.45Zm0,20.65H296.52V694.14H317v20.45ZM152,694.14h20.45v20.45H152V694.14Zm0-20.65h20.45v20.45H152V673.49Zm0-20.65h20.45v20.45H152V652.84Zm0-20.65h20.45v20.45H152V632.19Zm0-20.65h20.45V632H152V611.54ZM296.32,632H275.87V611.54h20.45V632Zm0,20.65H275.87V632.19h20.45v20.45Zm0,20.65H275.87V652.84h20.45v20.45Zm0,20.65H275.87V673.49h20.45v20.45Zm-123.7-20.45h20.45v20.45H172.63V673.49Zm0-20.65h20.45v20.45H172.63V652.84Zm0-20.65h20.45v20.45H172.63V632.19Zm103,20.45H255.22V632.19h20.45v20.45Zm0,20.65H255.22V652.84h20.45v20.45Zm-82.4-20.45h20.45v20.45H193.28V652.84Zm20.65,0h20.46v20.45H213.92V652.84Zm20.65,0H255v20.45H234.57V652.84Zm20.45-.2H234.57V632.19H255v20.45Zm-20.65,0H213.92V632.19h20.46v20.45Zm-20.65,0H193.28V632.19h20.45v20.45Zm-20.45,20.84h20.45v20.45H193.28V673.49Zm20.65,0h20.46v20.45H213.92V673.49Zm20.65,0H255v20.45H234.57V673.49Zm20.65,0h20.45v20.45H255.22V673.49ZM275.68,632H255.22V611.54h20.45V632ZM255,632H234.57V611.54H255V632Zm-20.65,0H213.92V611.54h20.46V632Zm-20.65,0H193.28V611.54h20.45V632Zm-20.65,0H172.63V611.54h20.45V632Zm-20.45,62.14h20.45v20.45H172.63V694.14Zm20.65,0h20.45v20.45H193.28V694.14Zm20.65,0h20.46v20.45H213.92V694.14Zm20.65,0H255v20.45H234.57V694.14Zm20.65,0h20.45v20.45H255.22V694.14Zm20.65,0h20.45v20.45H275.87V694.14Zm0-103.24h20.45v20.45H275.87V590.89Zm-20.65,0h20.45v20.45H255.22V590.89Zm-20.65,0H255v20.45H234.57V590.89Zm-20.65,0h20.46v20.45H213.92V590.89Zm-20.65,0h20.45v20.45H193.28V590.89Zm-20.65,0h20.45v20.45H172.63V590.89Zm-20.65,0h20.45v20.45H152V590.89Zm-20.65,0h20.45v20.45H131.33V590.89Zm0,20.65h20.45V632H131.33V611.54Zm0,20.65h20.45v20.45H131.33V632.19Zm0,20.65h20.45v20.45H131.33V652.84Zm0,20.65h20.45v20.45H131.33V673.49Zm0,20.65h20.45v20.45H131.33V694.14Zm20.45,41.1H131.33V714.79h20.45v20.45Zm20.65,0H152V714.79h20.45v20.45Zm20.65,0H172.63V714.79h20.45v20.45Zm20.65,0H193.28V714.79h20.45v20.45Zm20.65,0H213.92V714.79h20.46v20.45Zm20.65,0H234.57V714.79H255v20.45Zm20.65,0H255.22V714.79h20.45v20.45Zm20.65,0H275.87V714.79h20.45v20.45Zm20.65,0H296.52V714.79H317v20.45Zm20.65,0H317.17V714.79h20.45v20.45Zm0-20.65H317.17V694.14h20.45v20.45Zm0-20.65H317.17V673.49h20.45v20.45Zm0-20.65H317.17V652.84h20.45v20.45Zm0-20.65H317.17V632.19h20.45v20.45Zm0-20.65H317.17V611.54h20.45V632Zm-20.45-20.65V590.89h20.45v20.45H317.17Z" transform="translate(-42.63 -579.91)"/><path class="cls-1" d="M523.85,590.7h-186V735.43H544.5V590.7H523.85Zm-20.65.19h20.46v20.45H503.2V590.89ZM523.65,632H503.2V611.54h20.46V632Zm0,20.65H503.2V632.19h20.46v20.45Zm0,20.65H503.2V652.84h20.46v20.45Zm0,20.65H503.2V673.49h20.46v20.45Zm0,20.65H503.2V694.14h20.46v20.45Zm-165-20.45h20.45v20.45H358.66V694.14Zm0-20.65h20.45v20.45H358.66V673.49Zm0-20.65h20.45v20.45H358.66V652.84Zm0-20.65h20.45v20.45H358.66V632.19Zm0-20.65h20.45V632H358.66V611.54ZM503,632H482.55V611.54H503V632Zm0,20.65H482.55V632.19H503v20.45Zm0,20.65H482.55V652.84H503v20.45Zm0,20.65H482.55V673.49H503v20.45Zm-123.7-20.45h20.45v20.45H379.31V673.49Zm0-20.65h20.45v20.45H379.31V652.84Zm0-20.65h20.45v20.45H379.31V632.19Zm103,20.45H461.9V632.19h20.45v20.45Zm0,20.65H461.9V652.84h20.45v20.45ZM400,652.84h20.45v20.45H400V652.84Zm20.65,0h20.46v20.45H420.6V652.84Zm20.65,0h20.45v20.45H441.25V652.84Zm20.45-.2H441.25V632.19h20.45v20.45Zm-20.65,0H420.6V632.19h20.46v20.45Zm-20.65,0H400V632.19h20.45v20.45ZM400,673.49h20.45v20.45H400V673.49Zm20.65,0h20.46v20.45H420.6V673.49Zm20.65,0h20.45v20.45H441.25V673.49Zm20.65,0h20.45v20.45H461.9V673.49ZM482.36,632H461.9V611.54h20.45V632Zm-20.65,0H441.25V611.54h20.45V632Zm-20.65,0H420.6V611.54h20.46V632Zm-20.65,0H400V611.54h20.45V632Zm-20.65,0H379.31V611.54h20.45V632Zm-20.45,62.14h20.45v20.45H379.31V694.14Zm20.65,0h20.45v20.45H400V694.14Zm20.65,0h20.46v20.45H420.6V694.14Zm20.65,0h20.45v20.45H441.25V694.14Zm20.65,0h20.45v20.45H461.9V694.14Zm20.65,0H503v20.45H482.55V694.14Zm0-103.24H503v20.45H482.55V590.89Zm-20.65,0h20.45v20.45H461.9V590.89Zm-20.65,0h20.45v20.45H441.25V590.89Zm-20.65,0h20.46v20.45H420.6V590.89Zm-20.65,0h20.45v20.45H400V590.89Zm-20.65,0h20.45v20.45H379.31V590.89Zm-20.65,0h20.45v20.45H358.66V590.89Zm-20.65,0h20.45v20.45H338V590.89Zm0,20.65h20.45V632H338V611.54Zm0,20.65h20.45v20.45H338V632.19Zm0,20.65h20.45v20.45H338V652.84Zm0,20.65h20.45v20.45H338V673.49Zm0,20.65h20.45v20.45H338V694.14Zm20.45,41.1H338V714.79h20.45v20.45Zm20.65,0H358.66V714.79h20.45v20.45Zm20.65,0H379.31V714.79h20.45v20.45Zm20.65,0H400V714.79h20.45v20.45Zm20.65,0H420.6V714.79h20.46v20.45Zm20.65,0H441.25V714.79h20.45v20.45Zm20.65,0H461.9V714.79h20.45v20.45Zm20.65,0H482.55V714.79H503v20.45Zm20.65,0H503.2V714.79h20.46v20.45Zm20.65,0H523.85V714.79H544.3v20.45Zm0-20.65H523.85V694.14H544.3v20.45Zm0-20.65H523.85V673.49H544.3v20.45Zm0-20.65H523.85V652.84H544.3v20.45Zm0-20.65H523.85V632.19H544.3v20.45Zm0-20.65H523.85V611.54H544.3V632Zm-20.45-20.65V590.89H544.3v20.45H523.85Z" transform="translate(-42.63 -579.91)"/><path class="cls-2" d="M317.31,686.42a7.51,7.51,0,0,0-6.68,4.13l-46.78-16.32a7.41,7.41,0,0,0,.09-0.93,7.54,7.54,0,0,0-7.53-7.53,7.43,7.43,0,0,0-3.44.87l-48.45-50a7.46,7.46,0,0,0,1.82-4.85,7.53,7.53,0,1,0-13.61,4.4l-50.05,70.56a7.44,7.44,0,0,0-9.07,6.11l-49.43-.27a7.52,7.52,0,1,0-11.72,7.62L47.83,734.59l3.06,1.06,24.49-34.21a7.45,7.45,0,0,0,8.87-6.5l49.36,0.27a7.51,7.51,0,1,0,11.93-7.14l49.53-69.82a7.26,7.26,0,0,0,7.12.2l48.47,50a7.46,7.46,0,0,0-1.77,4.79,7.51,7.51,0,0,0,14.24,3.34l46.75,16.32a7.37,7.37,0,0,0-.1,1A7.53,7.53,0,1,0,317.31,686.42Z" transform="translate(-42.63 -579.91)"/><polygon class="cls-3" points="7.02 156.58 5.47 154.46 64.37 133.84 95.32 70.22 154.29 133.15 213.7 113.21 272.97 51.62 275.81 52.94 216.03 115.07 153.06 136.2 96.3 75.63 67.17 135.52 7.02 156.58"/><circle class="cls-4" cx="68.8" cy="134.68" r="5.16"/><path class="cls-3" d="M111.43,722.12a7.53,7.53,0,1,1,7.53-7.53A7.54,7.54,0,0,1,111.43,722.12Zm0-10.33a2.8,2.8,0,1,0,2.8,2.8A2.8,2.8,0,0,0,111.43,711.79Z" transform="translate(-42.63 -579.91)"/><circle class="cls-4" cx="96.03" cy="72.93" r="5.16"/><path class="cls-3" d="M138.66,660.37a7.53,7.53,0,1,1,7.53-7.53A7.54,7.54,0,0,1,138.66,660.37Zm0-10.33a2.8,2.8,0,1,0,2.8,2.8A2.8,2.8,0,0,0,138.66,650Z" transform="translate(-42.63 -579.91)"/><circle class="cls-4" cx="151.03" cy="134.68" r="5.16"/><path class="cls-3" d="M193.66,722.12a7.53,7.53,0,1,1,7.53-7.53A7.54,7.54,0,0,1,193.66,722.12Zm0-10.33a2.8,2.8,0,1,0,2.8,2.8A2.8,2.8,0,0,0,193.66,711.79Z" transform="translate(-42.63 -579.91)"/><circle class="cls-4" cx="212.69" cy="114.14" r="5.16"/><path class="cls-3" d="M255.32,701.58a7.53,7.53,0,1,1,7.53-7.53A7.54,7.54,0,0,1,255.32,701.58Zm0-10.33a2.8,2.8,0,1,0,2.8,2.8A2.81,2.81,0,0,0,255.32,691.25Z" transform="translate(-42.63 -579.91)"/><circle class="cls-4" cx="275.81" cy="52.28" r="5.16"/><path class="cls-3" d="M318.45,639.72a7.53,7.53,0,1,1,7.53-7.53A7.54,7.54,0,0,1,318.45,639.72Zm0-10.33a2.8,2.8,0,1,0,2.8,2.8A2.8,2.8,0,0,0,318.45,629.39Z" transform="translate(-42.63 -579.91)"/><polyline class="cls-3" points="275.34 50.01 334.31 112.94 393.72 93 452.99 31.41 455.83 32.73 396.05 94.85 333.08 115.99 276.32 55.42"/><circle class="cls-4" cx="276.05" cy="52.71" r="5.16"/><path class="cls-3" d="M318.68,640.15a7.53,7.53,0,1,1,7.53-7.53A7.54,7.54,0,0,1,318.68,640.15Zm0-10.33a2.8,2.8,0,1,0,2.8,2.8A2.8,2.8,0,0,0,318.68,629.83Z" transform="translate(-42.63 -579.91)"/><circle class="cls-4" cx="331.05" cy="114.47" r="5.16"/><path class="cls-3" d="M373.68,701.91a7.53,7.53,0,1,1,7.53-7.53A7.54,7.54,0,0,1,373.68,701.91Zm0-10.33a2.8,2.8,0,1,0,2.8,2.8A2.8,2.8,0,0,0,373.68,691.58Z" transform="translate(-42.63 -579.91)"/><circle class="cls-4" cx="455.83" cy="32.07" r="5.16"/><path class="cls-3" d="M498.47,619.51A7.53,7.53,0,1,1,506,612,7.54,7.54,0,0,1,498.47,619.51Zm0-10.33a2.8,2.8,0,1,0,2.8,2.8A2.8,2.8,0,0,0,498.47,609.18Z" transform="translate(-42.63 -579.91)"/><polygon class="cls-5" points="10.16 10.79 5.08 0 0 10.79 3.89 10.79 6.27 10.79 10.16 10.79"/><polygon class="cls-5" points="6.27 155.21 6.27 10.79 3.89 10.79 3.89 157.58 501.86 157.58 501.86 155.21 6.27 155.21"/><polygon class="cls-5" points="512.65 156.4 501.86 151.32 501.86 155.21 501.86 157.58 501.86 161.47 512.65 156.4"/><circle class="cls-4" cx="398.52" cy="91.71" r="5.16"/><path class="cls-3" d="M441.16,679.15a7.53,7.53,0,1,1,7.53-7.53A7.54,7.54,0,0,1,441.16,679.15Zm0-10.33a2.8,2.8,0,1,0,2.8,2.8A2.81,2.81,0,0,0,441.16,668.82Z" transform="translate(-42.63 -579.91)"/></svg>