<svg enable-background="new 0 0 426.667 426.667" version="1.1" viewBox="0 0 426.667 426.667" xml:space="preserve" xmlns="http://www.w3.org/2000/svg"><path d="m213.33 0c-117.82 0-213.33 95.514-213.33 213.33s95.514 213.33 213.33 213.33 213.33-95.514 213.33-213.33-95.513-213.33-213.33-213.33zm117.66 276.69l-54.302 54.306-63.36-63.356-63.36 63.36-54.302-54.31 63.356-63.356-63.356-63.36 54.302-54.302 63.36 63.356 63.36-63.356 54.302 54.302-63.356 63.36 63.356 63.356z" fill="#d6d6d6"/><path d="m122.83 303.48-27.036-27.051 31.63-31.642 31.63-31.642-31.632-31.645-31.632-31.645 27.049-27.049 27.049-27.049 31.632 31.645 31.632 31.645 31.655-31.643 31.655-31.643 27.036 27.051 27.036 27.051-31.63 31.642-31.63 31.642 31.632 31.645 31.632 31.645-27.049 27.049-27.049 27.049-31.632-31.645-31.632-31.645-31.655 31.643-31.655 31.643z" fill="#fff" stroke-width="0"/></svg>
