<svg width="512px" height="512px" enable-background="new 0 0 479.242 479.242" version="1.1" viewBox="0 0 479.242 479.242" xml:space="preserve" xmlns="http://www.w3.org/2000/svg"><path d="m441.01 120.74h-217.16c-9.677 0-17.543-7.871-17.543-17.541v-2.521c0-21.081-17.147-38.235-38.233-38.235h-129.83c-21.089 0-38.236 17.155-38.236 38.236v277.89c0 21.08 17.147 38.234 38.236 38.234h402.77c21.089 0 38.236-17.154 38.236-38.234v-219.59c0-21.082-17.147-38.237-38.236-38.237zm5.959 257.82c0 3.285-2.681 5.958-5.959 5.958h-402.77c-3.278 0-5.959-2.673-5.959-5.958v-225.78l408.73 0.236c3.278 0 5.959 2.672 5.959 5.959v219.59z" fill="#ccc"/></svg>
