<svg width="512px" height="512px" enable-background="new 0 0 48.827 48.827" version="1.1" viewBox="0 0 48.827 48.827" xml:space="preserve" xmlns="http://www.w3.org/2000/svg"><g fill="#3b5998"><path d="m48.15 6.05l-4.368-4.362c-0.451-0.451-1.044-0.677-1.636-0.677-0.593 0-1.186 0.225-1.636 0.676l-3.494 3.484 7.64 7.626 3.494-3.483c0.903-0.902 0.903-2.365 0-3.264z"/><polygon points="14.336 27.81 21.976 35.437 43.021 14.431 35.381 6.804"/><polygon points="12.687 29.441 11.056 38.694 20.327 37.067"/><path d="m33.807 42.816h-28.806v-28.805h20.329l5.01-5h-27.106c-1.779 0-3.234 1.455-3.234 3.234v32.338c0 1.778 1.455 3.233 3.234 3.233h32.339c1.777 0 3.232-1.455 3.232-3.233v-23.121l-5 4.992 2e-3 16.362z"/></g></svg>
