<svg width="512px" height="512px" enable-background="new 0 0 140.172 140.172" version="1.1" viewBox="0 0 140.172 140.172" xml:space="preserve" xmlns="http://www.w3.org/2000/svg"><g id="_x36_4._Trash"><path d="m70.086 112.14c3.867 0 7.009-3.142 7.009-7.009v-56.069c0-3.869-3.142-7.008-7.009-7.008-3.869 0-7.008 3.14-7.008 7.008v56.069c0 3.867 3.139 7.009 7.008 7.009zm56.069-98.121h-21.026v-7.008c0-3.869-3.142-7.009-7.009-7.009h-56.068c-3.869 0-7.008 3.14-7.008 7.009v7.008h-21.026c-3.872 0-7.009 3.14-7.009 7.009s3.137 7.008 7.009 7.008v98.12c0 7.741 6.276 14.018 14.017 14.018h84.103c7.741 0 14.018-6.276 14.018-14.018v-98.12c3.867 0 7.008-3.14 7.008-7.008s-3.142-7.009-7.009-7.009zm-14.017 112.14h-84.103v-98.12h84.103v98.12zm-63.077-14.016c3.869 0 7.008-3.142 7.008-7.009v-56.069c0-3.869-3.14-7.008-7.008-7.008s-7.009 3.14-7.009 7.008v56.069c0 3.867 3.14 7.009 7.009 7.009zm42.051 0c3.867 0 7.008-3.142 7.008-7.009v-56.069c0-3.869-3.141-7.008-7.008-7.008s-7.009 3.14-7.009 7.008v56.069c1e-3 3.867 3.142 7.009 7.009 7.009z" fill="#ccc"/></g></svg>
